<?xml version="1.0" standalone="no"?>
<!DOCTYPE svg PUBLIC "-//W3C//DTD SVG 20010904//EN"
 "http://www.w3.org/TR/2001/REC-SVG-20010904/DTD/svg10.dtd">
<svg version="1.0" xmlns="http://www.w3.org/2000/svg"
 width="300.000000pt" height="300.000000pt" viewBox="0 0 300.000000 300.000000"
 preserveAspectRatio="xMidYMid meet">
<metadata>
Created by potrace 1.11, written by Peter Selinger 2001-2013
</metadata>
<g transform="translate(0.000000,300.000000) scale(0.100000,-0.100000)"
fill="#000000" stroke="none">
<path d="M1264 2765 c-13 -25 -14 -36 -5 -53 6 -12 18 -22 25 -22 11 0 10 -13
-5 -65 -10 -36 -18 -69 -19 -73 0 -4 -12 -10 -26 -14 -82 -22 -85 -108 -4
-108 25 0 27 -5 34 -105 3 -44 10 -96 16 -115 9 -29 8 -37 -6 -45 -45 -28 -62
-46 -57 -63 3 -14 -13 -32 -66 -71 -200 -149 -299 -373 -293 -665 2 -123 16
-189 58 -274 41 -84 110 -159 172 -186 49 -22 44 5 47 -281 1 -104 -2 -198 -7
-208 -25 -49 -12 -154 24 -194 15 -17 15 -22 -1 -70 -10 -28 -17 -73 -17 -100
l1 -48 63 -3 c62 -3 62 -3 63 25 1 41 6 64 17 75 7 7 9 -10 8 -46 l-2 -56 342
0 c265 0 343 3 346 13 2 6 4 29 3 49 -1 46 7 40 20 -15 l11 -42 66 -3 c63 -3
66 -2 70 22 3 13 -1 41 -7 60 -7 20 -10 36 -8 36 3 0 -7 20 -22 45 l-26 46 22
46 c42 87 29 185 -34 255 -48 54 -153 69 -217 31 -28 -16 -32 -16 -57 -1 -16
9 -45 19 -65 23 -21 4 -38 10 -39 14 0 3 -2 13 -4 21 -11 49 -17 102 -19 177
-3 97 8 120 72 150 98 45 233 155 288 234 47 69 68 181 68 374 1 234 -53 417
-152 520 -76 79 -243 127 -418 120 -97 -3 -108 -1 -117 30 -28 95 -57 202 -57
211 0 6 14 17 30 24 17 7 35 21 41 31 13 25 4 24 -21 -1 -11 -11 -29 -20 -40
-20 -17 0 -20 7 -20 45 0 44 0 44 27 34 15 -6 33 -15 40 -21 8 -7 13 -7 13 0
0 14 -46 42 -70 42 -16 0 -20 6 -20 34 0 53 11 96 25 96 40 0 50 73 15 102
-36 29 -85 21 -106 -17z m-6 -280 c-1 -37 -5 -45 -20 -45 -54 0 -76 45 -35 73
42 30 57 22 55 -28z"/>
</g>
</svg>
